<svg width="42" height="40" viewBox="0 0 42 40" fill="none" xmlns="http://www.w3.org/2000/svg">
<path d="M8 0.5H34C38.1421 0.5 41.5 3.85786 41.5 8V32C41.5 36.1421 38.1421 39.5 34 39.5H8C3.85786 39.5 0.5 36.1421 0.5 32V8C0.5 3.85786 3.85786 0.5 8 0.5Z" fill="#0800FF" stroke="#0800FF"/>
<rect x="-0.5" y="0.5" width="29" height="29" transform="matrix(-1 0 0 1 35 5)" stroke="#0800FF"/>
<path d="M22.25 10H31C31.663 10 32.2989 10.2634 32.7678 10.7323C33.2366 11.2011 33.5 11.837 33.5 12.5V30C33.5 30.6631 33.2366 31.299 32.7678 31.7678C32.2989 32.2366 31.663 32.5 31 32.5H13.5C12.837 32.5 12.2011 32.2366 11.7322 31.7678C11.2634 31.299 11 30.6631 11 30V21.25M12.875 8.12504C12.3777 7.62776 11.7033 7.34839 11 7.34839C10.2967 7.34839 9.62228 7.62776 9.125 8.12504C8.62772 8.62232 8.34835 9.29678 8.34835 10C8.34835 10.7033 8.62772 11.3778 9.125 11.875L21 23.75L26 25L24.75 20L12.875 8.12504Z" stroke="#F5F5F5" stroke-width="2" stroke-linecap="round" stroke-linejoin="round"/>
</svg>
