<?xml version="1.0" encoding="UTF-8" standalone="no"?>
<!-- Created with Inkscape (http://www.inkscape.org/) -->

<svg
   width="96"
   height="96"
   viewBox="0 0 96 96"
   version="1.1"
   id="svg1"
   xmlns:inkscape="http://www.inkscape.org/namespaces/inkscape"
   xmlns:sodipodi="http://sodipodi.sourceforge.net/DTD/sodipodi-0.dtd"
   xmlns="http://www.w3.org/2000/svg"
   xmlns:svg="http://www.w3.org/2000/svg">
  <sodipodi:namedview
     id="namedview1"
     pagecolor="#ffffff"
     bordercolor="#000000"
     borderopacity="0.25"
     inkscape:showpageshadow="2"
     inkscape:pageopacity="0.0"
     inkscape:pagecheckerboard="0"
     inkscape:deskcolor="#d1d1d1"
     inkscape:document-units="px" />
  <defs
     id="defs1" />
  <g
     inkscape:label="Layer 1"
     inkscape:groupmode="layer"
     id="layer1">
    <g
       id="g2"
       transform="matrix(1.1873227,0,0,1.1749713,-10.685905,-10.574744)"
       style="stroke-width:0.846646">
      <path
         style="color:#000000;fill:#000000;stroke-width:0.846646;stroke-linecap:round;-inkscape-stroke:none"
         d="M 41,9 C 23.371673,9 9,23.371673 9,41 9,58.628327 23.371673,73 41,73 58.628327,73 73,58.628327 73,41 73,23.371673 58.628327,9 41,9 Z m 0,7.558594 C 54.543112,16.558594 65.441406,27.456888 65.441406,41 65.441406,54.543112 54.543112,65.441406 41,65.441406 27.456888,65.441406 16.558594,54.543112 16.558594,41 16.558594,27.456888 27.456888,16.558594 41,16.558594 Z"
         id="path1" />
      <path
         id="rect1"
         style="stroke-width:6.39985;stroke-linecap:round"
         transform="rotate(-47.281186)"
         d="m -5.3524909,91.879646 c 2.59715,0 4.68799639,1.104435 4.68799639,2.47631 v 27.896894 c 0,1.37188 -2.09084639,2.47631 -4.68799639,2.47631 -2.59715,0 -4.6879961,-1.10443 -4.6879961,-2.47631 V 94.355956 c 0,-1.371875 2.0908461,-2.47631 4.6879961,-2.47631 z" />
    </g>
  </g>
</svg>
